<svg width="1440" height="1440" viewBox="0 0 1440 1440" fill="none" xmlns="http://www.w3.org/2000/svg">
<g opacity="0.15" clip-path="url(#clip0_2094_6474)">
<mask id="path-1-inside-1_2094_6474" fill="white">
<path d="M0 0H180V180H0V0Z"/>
</mask>
<path d="M180 178.5H0V181.5H180V178.5Z" fill="white" mask="url(#path-1-inside-1_2094_6474)"/>
<mask id="path-3-inside-2_2094_6474" fill="white">
<path d="M180 0H360V180H180V0Z"/>
</mask>
<path d="M180 180H178.5V181.5H180V180ZM360 178.5H180V181.5H360V178.5ZM181.5 180V0H178.5V180H181.5Z" fill="white" mask="url(#path-3-inside-2_2094_6474)"/>
<mask id="path-5-inside-3_2094_6474" fill="white">
<path d="M360 0H540V180H360V0Z"/>
</mask>
<path d="M360 180H358.5V181.5H360V180ZM540 178.5H360V181.5H540V178.5ZM361.5 180V0H358.5V180H361.5Z" fill="white" mask="url(#path-5-inside-3_2094_6474)"/>
<mask id="path-7-inside-4_2094_6474" fill="white">
<path d="M540 0H720V180H540V0Z"/>
</mask>
<path d="M540 180H538.5V181.5H540V180ZM720 178.5H540V181.5H720V178.5ZM541.5 180V0H538.5V180H541.5Z" fill="white" mask="url(#path-7-inside-4_2094_6474)"/>
<mask id="path-9-inside-5_2094_6474" fill="white">
<path d="M720 0H900V180H720V0Z"/>
</mask>
<path d="M720 180H718.5V181.5H720V180ZM900 178.5H720V181.5H900V178.5ZM721.5 180V0H718.5V180H721.5Z" fill="white" mask="url(#path-9-inside-5_2094_6474)"/>
<mask id="path-11-inside-6_2094_6474" fill="white">
<path d="M900 0H1080V180H900V0Z"/>
</mask>
<path d="M900 0H1080V180H900V0Z" fill="white" fill-opacity="0.3"/>
<path d="M900 180H898.5V181.5H900V180ZM1080 178.5H900V181.5H1080V178.5ZM901.5 180V0H898.5V180H901.5Z" fill="white" mask="url(#path-11-inside-6_2094_6474)"/>
<mask id="path-13-inside-7_2094_6474" fill="white">
<path d="M1080 0H1260V180H1080V0Z"/>
</mask>
<path d="M1080 180H1078.5V181.5H1080V180ZM1260 178.5H1080V181.5H1260V178.5ZM1081.5 180V0H1078.5V180H1081.5Z" fill="white" mask="url(#path-13-inside-7_2094_6474)"/>
<mask id="path-15-inside-8_2094_6474" fill="white">
<path d="M1260 0H1440V180H1260V0Z"/>
</mask>
<path d="M1260 180H1258.5V181.5H1260V180ZM1440 178.5H1260V181.5H1440V178.5ZM1261.5 180V0H1258.5V180H1261.5Z" fill="white" mask="url(#path-15-inside-8_2094_6474)"/>
<mask id="path-17-inside-9_2094_6474" fill="white">
<path d="M0 180H180V360H0V180Z"/>
</mask>
<path d="M180 358.5H0V361.5H180V358.5Z" fill="white" mask="url(#path-17-inside-9_2094_6474)"/>
<mask id="path-19-inside-10_2094_6474" fill="white">
<path d="M180 180H360V360H180V180Z"/>
</mask>
<path d="M180 360H178.5V361.5H180V360ZM360 358.5H180V361.5H360V358.5ZM181.5 360V180H178.5V360H181.5Z" fill="white" mask="url(#path-19-inside-10_2094_6474)"/>
<mask id="path-21-inside-11_2094_6474" fill="white">
<path d="M360 180H540V360H360V180Z"/>
</mask>
<path d="M360 180H540V360H360V180Z" fill="white" fill-opacity="0.3"/>
<path d="M360 360H358.5V361.5H360V360ZM540 358.5H360V361.5H540V358.5ZM361.5 360V180H358.5V360H361.5Z" fill="white" mask="url(#path-21-inside-11_2094_6474)"/>
<mask id="path-23-inside-12_2094_6474" fill="white">
<path d="M540 180H720V360H540V180Z"/>
</mask>
<path d="M540 360H538.5V361.5H540V360ZM720 358.5H540V361.5H720V358.5ZM541.5 360V180H538.5V360H541.5Z" fill="white" mask="url(#path-23-inside-12_2094_6474)"/>
<mask id="path-25-inside-13_2094_6474" fill="white">
<path d="M720 180H900V360H720V180Z"/>
</mask>
<path d="M720 360H718.5V361.5H720V360ZM900 358.5H720V361.5H900V358.5ZM721.5 360V180H718.5V360H721.5Z" fill="white" mask="url(#path-25-inside-13_2094_6474)"/>
<mask id="path-27-inside-14_2094_6474" fill="white">
<path d="M900 180H1080V360H900V180Z"/>
</mask>
<path d="M900 360H898.5V361.5H900V360ZM1080 358.5H900V361.5H1080V358.5ZM901.5 360V180H898.5V360H901.5Z" fill="white" mask="url(#path-27-inside-14_2094_6474)"/>
<mask id="path-29-inside-15_2094_6474" fill="white">
<path d="M1080 180H1260V360H1080V180Z"/>
</mask>
<path d="M1080 360H1078.5V361.5H1080V360ZM1260 358.5H1080V361.5H1260V358.5ZM1081.5 360V180H1078.5V360H1081.5Z" fill="white" mask="url(#path-29-inside-15_2094_6474)"/>
<mask id="path-31-inside-16_2094_6474" fill="white">
<path d="M1260 180H1440V360H1260V180Z"/>
</mask>
<path d="M1260 360H1258.5V361.5H1260V360ZM1440 358.5H1260V361.5H1440V358.5ZM1261.5 360V180H1258.5V360H1261.5Z" fill="white" mask="url(#path-31-inside-16_2094_6474)"/>
<mask id="path-33-inside-17_2094_6474" fill="white">
<path d="M0 360H180V540H0V360Z"/>
</mask>
<path d="M180 538.5H0V541.5H180V538.5Z" fill="white" mask="url(#path-33-inside-17_2094_6474)"/>
<mask id="path-35-inside-18_2094_6474" fill="white">
<path d="M180 360H360V540H180V360Z"/>
</mask>
<path d="M180 540H178.5V541.5H180V540ZM360 538.5H180V541.5H360V538.5ZM181.5 540V360H178.5V540H181.5Z" fill="white" mask="url(#path-35-inside-18_2094_6474)"/>
<mask id="path-37-inside-19_2094_6474" fill="white">
<path d="M360 360H540V540H360V360Z"/>
</mask>
<path d="M360 540H358.5V541.5H360V540ZM540 538.5H360V541.5H540V538.5ZM361.5 540V360H358.5V540H361.5Z" fill="white" mask="url(#path-37-inside-19_2094_6474)"/>
<mask id="path-39-inside-20_2094_6474" fill="white">
<path d="M540 360H720V540H540V360Z"/>
</mask>
<path d="M540 540H538.5V541.5H540V540ZM720 538.5H540V541.5H720V538.5ZM541.5 540V360H538.5V540H541.5Z" fill="white" mask="url(#path-39-inside-20_2094_6474)"/>
<mask id="path-41-inside-21_2094_6474" fill="white">
<path d="M720 360H900V540H720V360Z"/>
</mask>
<path d="M720 540H718.5V541.5H720V540ZM900 538.5H720V541.5H900V538.5ZM721.5 540V360H718.5V540H721.5Z" fill="white" mask="url(#path-41-inside-21_2094_6474)"/>
<mask id="path-43-inside-22_2094_6474" fill="white">
<path d="M900 360H1080V540H900V360Z"/>
</mask>
<path d="M900 360H1080V540H900V360Z" fill="white" fill-opacity="0.3"/>
<path d="M900 540H898.5V541.5H900V540ZM1080 538.5H900V541.5H1080V538.5ZM901.5 540V360H898.5V540H901.5Z" fill="white" mask="url(#path-43-inside-22_2094_6474)"/>
<mask id="path-45-inside-23_2094_6474" fill="white">
<path d="M1080 360H1260V540H1080V360Z"/>
</mask>
<path d="M1080 540H1078.5V541.5H1080V540ZM1260 538.5H1080V541.5H1260V538.5ZM1081.5 540V360H1078.5V540H1081.5Z" fill="white" mask="url(#path-45-inside-23_2094_6474)"/>
<mask id="path-47-inside-24_2094_6474" fill="white">
<path d="M1260 360H1440V540H1260V360Z"/>
</mask>
<path d="M1260 540H1258.5V541.5H1260V540ZM1440 538.5H1260V541.5H1440V538.5ZM1261.5 540V360H1258.5V540H1261.5Z" fill="white" mask="url(#path-47-inside-24_2094_6474)"/>
<mask id="path-49-inside-25_2094_6474" fill="white">
<path d="M0 540H180V720H0V540Z"/>
</mask>
<path d="M0 540H180V720H0V540Z" fill="white" fill-opacity="0.3"/>
<path d="M180 718.5H0V721.5H180V718.5Z" fill="white" mask="url(#path-49-inside-25_2094_6474)"/>
<mask id="path-51-inside-26_2094_6474" fill="white">
<path d="M180 540H360V720H180V540Z"/>
</mask>
<path d="M180 720H178.5V721.5H180V720ZM360 718.5H180V721.5H360V718.5ZM181.5 720V540H178.5V720H181.5Z" fill="white" mask="url(#path-51-inside-26_2094_6474)"/>
<mask id="path-53-inside-27_2094_6474" fill="white">
<path d="M360 540H540V720H360V540Z"/>
</mask>
<path d="M360 720H358.5V721.5H360V720ZM540 718.5H360V721.5H540V718.5ZM361.5 720V540H358.5V720H361.5Z" fill="white" mask="url(#path-53-inside-27_2094_6474)"/>
<mask id="path-55-inside-28_2094_6474" fill="white">
<path d="M540 540H720V720H540V540Z"/>
</mask>
<path d="M540 540H720V720H540V540Z" fill="white" fill-opacity="0.3"/>
<path d="M540 720H538.5V721.5H540V720ZM720 718.5H540V721.5H720V718.5ZM541.5 720V540H538.5V720H541.5Z" fill="white" mask="url(#path-55-inside-28_2094_6474)"/>
<mask id="path-57-inside-29_2094_6474" fill="white">
<path d="M720 540H900V720H720V540Z"/>
</mask>
<path d="M720 720H718.5V721.5H720V720ZM900 718.5H720V721.5H900V718.5ZM721.5 720V540H718.5V720H721.5Z" fill="white" mask="url(#path-57-inside-29_2094_6474)"/>
<mask id="path-59-inside-30_2094_6474" fill="white">
<path d="M900 540H1080V720H900V540Z"/>
</mask>
<path d="M900 720H898.5V721.5H900V720ZM1080 718.5H900V721.5H1080V718.5ZM901.5 720V540H898.5V720H901.5Z" fill="white" mask="url(#path-59-inside-30_2094_6474)"/>
<mask id="path-61-inside-31_2094_6474" fill="white">
<path d="M1080 540H1260V720H1080V540Z"/>
</mask>
<path d="M1080 720H1078.5V721.5H1080V720ZM1260 718.5H1080V721.5H1260V718.5ZM1081.5 720V540H1078.5V720H1081.5Z" fill="white" mask="url(#path-61-inside-31_2094_6474)"/>
<mask id="path-63-inside-32_2094_6474" fill="white">
<path d="M1260 540H1440V720H1260V540Z"/>
</mask>
<path d="M1260 720H1258.5V721.5H1260V720ZM1440 718.5H1260V721.5H1440V718.5ZM1261.5 720V540H1258.5V720H1261.5Z" fill="white" mask="url(#path-63-inside-32_2094_6474)"/>
<mask id="path-65-inside-33_2094_6474" fill="white">
<path d="M0 720H180V900H0V720Z"/>
</mask>
<path d="M180 898.5H0V901.5H180V898.5Z" fill="white" mask="url(#path-65-inside-33_2094_6474)"/>
<mask id="path-67-inside-34_2094_6474" fill="white">
<path d="M180 720H360V900H180V720Z"/>
</mask>
<path d="M180 720H360V900H180V720Z" fill="white" fill-opacity="0.3"/>
<path d="M180 900H178.5V901.5H180V900ZM360 898.5H180V901.5H360V898.5ZM181.5 900V720H178.5V900H181.5Z" fill="white" mask="url(#path-67-inside-34_2094_6474)"/>
<mask id="path-69-inside-35_2094_6474" fill="white">
<path d="M360 720H540V900H360V720Z"/>
</mask>
<path d="M360 900H358.5V901.5H360V900ZM540 898.5H360V901.5H540V898.5ZM361.5 900V720H358.5V900H361.5Z" fill="white" mask="url(#path-69-inside-35_2094_6474)"/>
<mask id="path-71-inside-36_2094_6474" fill="white">
<path d="M540 720H720V900H540V720Z"/>
</mask>
<path d="M540 900H538.5V901.5H540V900ZM720 898.5H540V901.5H720V898.5ZM541.5 900V720H538.5V900H541.5Z" fill="white" mask="url(#path-71-inside-36_2094_6474)"/>
<mask id="path-73-inside-37_2094_6474" fill="white">
<path d="M720 720H900V900H720V720Z"/>
</mask>
<path d="M720 900H718.5V901.5H720V900ZM900 898.5H720V901.5H900V898.5ZM721.5 900V720H718.5V900H721.5Z" fill="white" mask="url(#path-73-inside-37_2094_6474)"/>
<mask id="path-75-inside-38_2094_6474" fill="white">
<path d="M900 720H1080V900H900V720Z"/>
</mask>
<path d="M900 900H898.5V901.5H900V900ZM1080 898.5H900V901.5H1080V898.5ZM901.5 900V720H898.5V900H901.5Z" fill="white" mask="url(#path-75-inside-38_2094_6474)"/>
<mask id="path-77-inside-39_2094_6474" fill="white">
<path d="M1080 720H1260V900H1080V720Z"/>
</mask>
<path d="M1080 720H1260V900H1080V720Z" fill="white" fill-opacity="0.3"/>
<path d="M1080 900H1078.5V901.5H1080V900ZM1260 898.5H1080V901.5H1260V898.5ZM1081.5 900V720H1078.5V900H1081.5Z" fill="white" mask="url(#path-77-inside-39_2094_6474)"/>
<mask id="path-79-inside-40_2094_6474" fill="white">
<path d="M1260 720H1440V900H1260V720Z"/>
</mask>
<path d="M1260 900H1258.5V901.5H1260V900ZM1440 898.5H1260V901.5H1440V898.5ZM1261.5 900V720H1258.5V900H1261.5Z" fill="white" mask="url(#path-79-inside-40_2094_6474)"/>
<mask id="path-81-inside-41_2094_6474" fill="white">
<path d="M0 900H180V1080H0V900Z"/>
</mask>
<path d="M180 1078.5H0V1081.5H180V1078.5Z" fill="white" mask="url(#path-81-inside-41_2094_6474)"/>
<mask id="path-83-inside-42_2094_6474" fill="white">
<path d="M180 900H360V1080H180V900Z"/>
</mask>
<path d="M180 1080H178.5V1081.5H180V1080ZM360 1078.5H180V1081.5H360V1078.5ZM181.5 1080V900H178.5V1080H181.5Z" fill="white" mask="url(#path-83-inside-42_2094_6474)"/>
<mask id="path-85-inside-43_2094_6474" fill="white">
<path d="M360 900H540V1080H360V900Z"/>
</mask>
<path d="M360 1080H358.5V1081.5H360V1080ZM540 1078.5H360V1081.5H540V1078.5ZM361.5 1080V900H358.5V1080H361.5Z" fill="white" mask="url(#path-85-inside-43_2094_6474)"/>
<mask id="path-87-inside-44_2094_6474" fill="white">
<path d="M540 900H720V1080H540V900Z"/>
</mask>
<path d="M540 1080H538.5V1081.5H540V1080ZM720 1078.5H540V1081.5H720V1078.5ZM541.5 1080V900H538.5V1080H541.5Z" fill="white" mask="url(#path-87-inside-44_2094_6474)"/>
<mask id="path-89-inside-45_2094_6474" fill="white">
<path d="M720 900H900V1080H720V900Z"/>
</mask>
<path d="M720 900H900V1080H720V900Z" fill="white" fill-opacity="0.3"/>
<path d="M720 1080H718.5V1081.5H720V1080ZM900 1078.5H720V1081.5H900V1078.5ZM721.5 1080V900H718.5V1080H721.5Z" fill="white" mask="url(#path-89-inside-45_2094_6474)"/>
<mask id="path-91-inside-46_2094_6474" fill="white">
<path d="M900 900H1080V1080H900V900Z"/>
</mask>
<path d="M900 1080H898.5V1081.5H900V1080ZM1080 1078.5H900V1081.5H1080V1078.5ZM901.5 1080V900H898.5V1080H901.5Z" fill="white" mask="url(#path-91-inside-46_2094_6474)"/>
<mask id="path-93-inside-47_2094_6474" fill="white">
<path d="M1080 900H1260V1080H1080V900Z"/>
</mask>
<path d="M1080 1080H1078.5V1081.5H1080V1080ZM1260 1078.5H1080V1081.5H1260V1078.5ZM1081.5 1080V900H1078.5V1080H1081.5Z" fill="white" mask="url(#path-93-inside-47_2094_6474)"/>
<mask id="path-95-inside-48_2094_6474" fill="white">
<path d="M1260 900H1440V1080H1260V900Z"/>
</mask>
<path d="M1260 1080H1258.5V1081.5H1260V1080ZM1440 1078.5H1260V1081.5H1440V1078.5ZM1261.5 1080V900H1258.5V1080H1261.5Z" fill="white" mask="url(#path-95-inside-48_2094_6474)"/>
<mask id="path-97-inside-49_2094_6474" fill="white">
<path d="M0 1080H180V1260H0V1080Z"/>
</mask>
<path d="M180 1258.5H0V1261.5H180V1258.5Z" fill="white" mask="url(#path-97-inside-49_2094_6474)"/>
<mask id="path-99-inside-50_2094_6474" fill="white">
<path d="M180 1080H360V1260H180V1080Z"/>
</mask>
<path d="M180 1260H178.5V1261.5H180V1260ZM360 1258.5H180V1261.5H360V1258.5ZM181.5 1260V1080H178.5V1260H181.5Z" fill="white" mask="url(#path-99-inside-50_2094_6474)"/>
<mask id="path-101-inside-51_2094_6474" fill="white">
<path d="M360 1080H540V1260H360V1080Z"/>
</mask>
<path d="M360 1260H358.5V1261.5H360V1260ZM540 1258.5H360V1261.5H540V1258.5ZM361.5 1260V1080H358.5V1260H361.5Z" fill="white" mask="url(#path-101-inside-51_2094_6474)"/>
<mask id="path-103-inside-52_2094_6474" fill="white">
<path d="M540 1080H720V1260H540V1080Z"/>
</mask>
<path d="M540 1080H720V1260H540V1080Z" fill="white" fill-opacity="0.3"/>
<path d="M540 1260H538.5V1261.5H540V1260ZM720 1258.5H540V1261.5H720V1258.5ZM541.5 1260V1080H538.5V1260H541.5Z" fill="white" mask="url(#path-103-inside-52_2094_6474)"/>
<mask id="path-105-inside-53_2094_6474" fill="white">
<path d="M720 1080H900V1260H720V1080Z"/>
</mask>
<path d="M720 1260H718.5V1261.5H720V1260ZM900 1258.5H720V1261.5H900V1258.5ZM721.5 1260V1080H718.5V1260H721.5Z" fill="white" mask="url(#path-105-inside-53_2094_6474)"/>
<mask id="path-107-inside-54_2094_6474" fill="white">
<path d="M900 1080H1080V1260H900V1080Z"/>
</mask>
<path d="M900 1260H898.5V1261.5H900V1260ZM1080 1258.5H900V1261.5H1080V1258.5ZM901.5 1260V1080H898.5V1260H901.5Z" fill="white" mask="url(#path-107-inside-54_2094_6474)"/>
<mask id="path-109-inside-55_2094_6474" fill="white">
<path d="M1080 1080H1260V1260H1080V1080Z"/>
</mask>
<path d="M1080 1260H1078.5V1261.5H1080V1260ZM1260 1258.5H1080V1261.5H1260V1258.5ZM1081.5 1260V1080H1078.5V1260H1081.5Z" fill="white" mask="url(#path-109-inside-55_2094_6474)"/>
<mask id="path-111-inside-56_2094_6474" fill="white">
<path d="M1260 1080H1440V1260H1260V1080Z"/>
</mask>
<path d="M1260 1260H1258.5V1261.5H1260V1260ZM1440 1258.5H1260V1261.5H1440V1258.5ZM1261.5 1260V1080H1258.5V1260H1261.5Z" fill="white" mask="url(#path-111-inside-56_2094_6474)"/>
<mask id="path-113-inside-57_2094_6474" fill="white">
<path d="M0 1260H180V1440H0V1260Z"/>
</mask>
<path d="M1.5 1440V1260H-1.5V1440H1.5Z" fill="white" mask="url(#path-113-inside-57_2094_6474)"/>
<mask id="path-115-inside-58_2094_6474" fill="white">
<path d="M180 1260H360V1440H180V1260Z"/>
</mask>
<path d="M181.5 1440V1260H178.5V1440H181.5Z" fill="white" mask="url(#path-115-inside-58_2094_6474)"/>
<mask id="path-117-inside-59_2094_6474" fill="white">
<path d="M360 1260H540V1440H360V1260Z"/>
</mask>
<path d="M361.5 1440V1260H358.5V1440H361.5Z" fill="white" mask="url(#path-117-inside-59_2094_6474)"/>
<mask id="path-119-inside-60_2094_6474" fill="white">
<path d="M540 1260H720V1440H540V1260Z"/>
</mask>
<path d="M541.5 1440V1260H538.5V1440H541.5Z" fill="white" mask="url(#path-119-inside-60_2094_6474)"/>
<mask id="path-121-inside-61_2094_6474" fill="white">
<path d="M720 1260H900V1440H720V1260Z"/>
</mask>
<path d="M721.5 1440V1260H718.5V1440H721.5Z" fill="white" mask="url(#path-121-inside-61_2094_6474)"/>
<mask id="path-123-inside-62_2094_6474" fill="white">
<path d="M900 1260H1080V1440H900V1260Z"/>
</mask>
<path d="M901.5 1440V1260H898.5V1440H901.5Z" fill="white" mask="url(#path-123-inside-62_2094_6474)"/>
<mask id="path-125-inside-63_2094_6474" fill="white">
<path d="M1080 1260H1260V1440H1080V1260Z"/>
</mask>
<path d="M1081.5 1440V1260H1078.5V1440H1081.5Z" fill="white" mask="url(#path-125-inside-63_2094_6474)"/>
<g filter="url(#filter0_f_2094_6474)">
<circle cx="720" cy="720" r="1434" fill="url(#paint0_radial_2094_6474)"/>
</g>
</g>
<defs>
<filter id="filter0_f_2094_6474" x="-1164" y="-1164" width="3768" height="3768" filterUnits="userSpaceOnUse" color-interpolation-filters="sRGB">
<feFlood flood-opacity="0" result="BackgroundImageFix"/>
<feBlend mode="normal" in="SourceGraphic" in2="BackgroundImageFix" result="shape"/>
<feGaussianBlur stdDeviation="225" result="effect1_foregroundBlur_2094_6474"/>
</filter>
<radialGradient id="paint0_radial_2094_6474" cx="0" cy="0" r="1" gradientUnits="userSpaceOnUse" gradientTransform="translate(720 720) rotate(90) scale(1434)">
<stop stop-color="#0D0D0D" stop-opacity="0"/>
<stop offset="0.46589" stop-color="#0D0D0D"/>
</radialGradient>
<clipPath id="clip0_2094_6474">
<rect width="1440" height="1440" fill="white"/>
</clipPath>
</defs>
</svg>
