<svg width="432" height="432" viewBox="0 0 432 432" fill="none" xmlns="http://www.w3.org/2000/svg">
<g opacity="0.3" filter="url(#filter0_f_4002_922)">
<circle cx="216" cy="216" r="72" fill="#747474"/>
</g>
<path fill-rule="evenodd" clip-rule="evenodd" d="M341.98 165C335.352 165 329.98 170.373 329.98 177C329.98 183.627 335.352 189 341.98 189H349.28C343.374 194.381 335.402 201.079 325.156 208.557C298.37 228.103 255.971 253.02 194.185 273.616C187.898 275.712 184.5 282.508 186.596 288.794C188.691 295.082 195.487 298.48 201.775 296.384C265.988 274.98 310.589 248.897 339.304 227.943C350.58 219.715 359.396 212.284 365.98 206.251V213C365.98 219.627 371.352 225 377.98 225C384.607 225 389.98 219.627 389.98 213V177C389.98 170.373 384.607 165 377.98 165H341.98Z" fill="#DDFF00"/>
<path d="M371.738 249H372H372.262L372.262 249C374.833 249 377.195 249 379.178 249.135C381.311 249.281 383.654 249.612 386.036 250.599C391.182 252.73 395.27 256.818 397.402 261.964C398.388 264.346 398.719 266.689 398.864 268.822C399 270.805 399 273.167 399 275.738V275.738V384.263V384.264C399 386.834 399 389.195 398.864 391.178C398.719 393.311 398.388 395.654 397.402 398.036C395.27 403.182 391.182 407.27 386.036 409.402C383.654 410.388 381.311 410.719 379.178 410.864C377.195 411 374.832 411 372.262 411H372.262H371.738H371.737C369.167 411 366.805 411 364.822 410.864C362.69 410.719 360.346 410.388 357.964 409.402C352.818 407.27 348.73 403.182 346.598 398.036C345.612 395.654 345.281 393.311 345.136 391.178C345 389.195 345 386.834 345 384.262V384.262V276V275.738V275.738C345 273.166 345 270.805 345.136 268.822C345.281 266.689 345.612 264.346 346.598 261.964C348.73 256.818 352.818 252.73 357.964 250.599C360.346 249.612 362.69 249.281 364.822 249.135C366.805 249 369.166 249 371.738 249L371.738 249Z" fill="url(#paint0_linear_4002_922)"/>
<path d="M288 291H287.738C285.167 291 282.805 291 280.822 291.136C278.69 291.281 276.346 291.612 273.964 292.598C268.818 294.73 264.73 298.818 262.598 303.964C261.612 306.346 261.28 308.689 261.135 310.822C261 312.805 261 315.166 261 317.738V317.738V318V384.262V384.262C261 386.834 261 389.195 261.135 391.178C261.28 393.311 261.612 395.654 262.598 398.036C264.73 403.182 268.818 407.27 273.964 409.402C276.346 410.388 278.69 410.719 280.822 410.864C282.805 411 285.167 411 287.737 411H287.738H288.262H288.262C290.832 411 293.195 411 295.178 410.864C297.311 410.719 299.654 410.388 302.036 409.402C307.182 407.27 311.27 403.182 313.402 398.036C314.388 395.654 314.719 393.311 314.864 391.178C315 389.195 315 386.833 315 384.262V317.738C315 315.167 315 312.805 314.864 310.822C314.719 308.689 314.388 306.346 313.402 303.964C311.27 298.818 307.182 294.73 302.036 292.598C299.654 291.612 297.311 291.281 295.178 291.136C293.195 291 290.833 291 288.262 291H288Z" fill="url(#paint1_linear_4002_922)"/>
<path d="M203.739 321H204H204.262H204.262C206.833 321 209.195 321 211.178 321.136C213.31 321.281 215.654 321.612 218.036 322.598C223.182 324.73 227.27 328.818 229.401 333.964C230.388 336.346 230.72 338.689 230.865 340.822C231 342.805 231 345.168 231 347.738V384.262C231 386.832 231 389.195 230.865 391.178C230.72 393.311 230.388 395.654 229.401 398.036C227.27 403.182 223.182 407.27 218.036 409.402C215.654 410.388 213.31 410.719 211.178 410.864C209.195 411 206.833 411 204.262 411H204.261H203.738H203.737C201.167 411 198.805 411 196.821 410.864C194.69 410.719 192.346 410.388 189.964 409.402C184.818 407.27 180.73 403.182 178.598 398.036C177.612 395.654 177.281 393.311 177.135 391.178C177 389.195 177 386.834 177 384.262L177 384.262V348V347.738L177 347.738C177 345.166 177 342.805 177.135 340.822C177.281 338.689 177.612 336.346 178.598 333.964C180.73 328.818 184.818 324.73 189.964 322.598C192.346 321.612 194.69 321.281 196.821 321.136C198.805 321 201.168 321 203.739 321H203.739Z" fill="url(#paint2_linear_4002_922)"/>
<defs>
<filter id="filter0_f_4002_922" x="0" y="0" width="432" height="432" filterUnits="userSpaceOnUse" color-interpolation-filters="sRGB">
<feFlood flood-opacity="0" result="BackgroundImageFix"/>
<feBlend mode="normal" in="SourceGraphic" in2="BackgroundImageFix" result="shape"/>
<feGaussianBlur stdDeviation="72" result="effect1_foregroundBlur_4002_922"/>
</filter>
<linearGradient id="paint0_linear_4002_922" x1="288" y1="249" x2="288" y2="411" gradientUnits="userSpaceOnUse">
<stop stop-color="#1E1E1E"/>
<stop offset="1" stop-color="#141414"/>
</linearGradient>
<linearGradient id="paint1_linear_4002_922" x1="288" y1="249" x2="288" y2="411" gradientUnits="userSpaceOnUse">
<stop stop-color="#1E1E1E"/>
<stop offset="1" stop-color="#141414"/>
</linearGradient>
<linearGradient id="paint2_linear_4002_922" x1="288" y1="249" x2="288" y2="411" gradientUnits="userSpaceOnUse">
<stop stop-color="#1E1E1E"/>
<stop offset="1" stop-color="#141414"/>
</linearGradient>
</defs>
</svg>
