<svg width="172" height="28" viewBox="0 0 172 28" fill="none" xmlns="http://www.w3.org/2000/svg">
<g clip-path="url(#clip0_4002_637)">
<g filter="url(#filter0_d_4002_637)">
<rect width="28" height="28" rx="14" fill="url(#paint0_linear_4002_637)" fill-opacity="0.1" shape-rendering="crispEdges"/>
<path d="M13.9967 5.04175C14.8712 5.04175 15.5599 5.70219 15.9996 6.59334L17.468 9.55438C17.5125 9.64602 17.6181 9.77506 17.7767 9.89312C17.9352 10.011 18.0905 10.0761 18.1926 10.0932L20.8506 10.5385C21.8107 10.6999 22.6155 11.1705 22.8767 11.99C23.1377 12.8088 22.7553 13.6597 22.0648 14.3514L22.0642 14.3522L19.9992 16.4342C19.9174 16.5167 19.8257 16.6721 19.7682 16.8746C19.7112 17.0757 19.7061 17.259 19.732 17.3773L19.7323 17.379L20.3231 19.9546C20.5682 21.0265 20.4869 22.0895 19.7309 22.6453C18.9722 23.2028 17.9356 22.9557 16.9937 22.3947L14.5022 20.9076C14.3975 20.8451 14.2178 20.7944 14.0009 20.7944C13.7856 20.7944 13.6022 20.8444 13.4907 20.9092L13.4891 20.9102L11.0024 22.3944C10.0617 22.9573 9.02628 23.2001 8.26759 22.6419C7.51207 22.0861 7.42678 21.0251 7.67259 19.954L8.26325 17.379L8.26361 17.3773C8.28951 17.259 8.28444 17.0757 8.22733 16.8746C8.16983 16.6721 8.07816 16.5167 7.99631 16.4342L5.92987 14.3506C5.24387 13.6589 4.86267 12.8087 5.12162 11.9911C5.38132 11.1711 6.18452 10.6999 7.14527 10.5385L9.8011 10.0936L9.80194 10.0934C9.89931 10.0765 10.0522 10.0122 10.2104 9.89398C10.3688 9.77553 10.4747 9.64621 10.5193 9.55438L10.5215 9.54981L11.988 6.59256L11.9886 6.59139C12.4325 5.70098 13.1233 5.04175 13.9967 5.04175Z" fill="#FFC400"/>
</g>
<g filter="url(#filter1_d_4002_637)">
<rect x="36" width="28" height="28" rx="14" fill="url(#paint1_linear_4002_637)" fill-opacity="0.1" shape-rendering="crispEdges"/>
<path d="M49.9967 5.04175C50.8712 5.04175 51.5599 5.70219 51.9996 6.59334L53.468 9.55438C53.5125 9.64602 53.6181 9.77506 53.7767 9.89312C53.9352 10.011 54.0905 10.0761 54.1926 10.0932L56.8506 10.5385C57.8107 10.6999 58.6155 11.1705 58.8767 11.99C59.1377 12.8088 58.7553 13.6597 58.0648 14.3514L58.0642 14.3522L55.9992 16.4342C55.9174 16.5167 55.8257 16.6721 55.7682 16.8746C55.7112 17.0757 55.7061 17.259 55.732 17.3773L55.7323 17.379L56.3231 19.9546C56.5682 21.0265 56.4869 22.0895 55.7309 22.6453C54.9722 23.2028 53.9356 22.9557 52.9937 22.3947L50.5022 20.9076C50.3975 20.8451 50.2178 20.7944 50.0009 20.7944C49.7856 20.7944 49.6022 20.8444 49.4907 20.9092L49.4891 20.9102L47.0024 22.3944C46.0617 22.9573 45.0263 23.2001 44.2676 22.6419C43.5121 22.0861 43.4268 21.0251 43.6726 19.954L44.2632 17.379L44.2636 17.3773C44.2895 17.259 44.2844 17.0757 44.2273 16.8746C44.1698 16.6721 44.0782 16.5167 43.9963 16.4342L41.9299 14.3506C41.2439 13.6589 40.8627 12.8087 41.1216 11.9911C41.3813 11.1711 42.1845 10.6999 43.1453 10.5385L45.8011 10.0936L45.8019 10.0934C45.8993 10.0765 46.0522 10.0122 46.2104 9.89398C46.3688 9.77553 46.4747 9.64621 46.5193 9.55438L46.5215 9.54981L47.988 6.59256L47.9886 6.59139C48.4325 5.70098 49.1233 5.04175 49.9967 5.04175Z" fill="#FFC400"/>
</g>
<g filter="url(#filter2_d_4002_637)">
<rect x="72" width="28" height="28" rx="14" fill="url(#paint2_linear_4002_637)" fill-opacity="0.1" shape-rendering="crispEdges"/>
<path d="M85.9967 5.04175C86.8712 5.04175 87.5599 5.70219 87.9996 6.59334L89.468 9.55438C89.5125 9.64602 89.6181 9.77506 89.7767 9.89312C89.9352 10.011 90.0905 10.0761 90.1926 10.0932L92.8506 10.5385C93.8107 10.6999 94.6155 11.1705 94.8767 11.99C95.1377 12.8088 94.7553 13.6597 94.0648 14.3514L94.0642 14.3522L91.9992 16.4342C91.9174 16.5167 91.8257 16.6721 91.7682 16.8746C91.7112 17.0757 91.7061 17.259 91.732 17.3773L91.7323 17.379L92.3231 19.9546C92.5682 21.0265 92.4869 22.0895 91.7309 22.6453C90.9722 23.2028 89.9356 22.9557 88.9937 22.3947L86.5022 20.9076C86.3975 20.8451 86.2178 20.7944 86.0009 20.7944C85.7856 20.7944 85.6022 20.8444 85.4907 20.9092L85.4891 20.9102L83.0024 22.3944C82.0617 22.9573 81.0263 23.2001 80.2676 22.6419C79.5121 22.0861 79.4268 21.0251 79.6726 19.954L80.2632 17.379L80.2636 17.3773C80.2895 17.259 80.2844 17.0757 80.2273 16.8746C80.1698 16.6721 80.0782 16.5167 79.9963 16.4342L77.9299 14.3506C77.2439 13.6589 76.8627 12.8087 77.1216 11.9911C77.3813 11.1711 78.1845 10.6999 79.1453 10.5385L81.8011 10.0936L81.8019 10.0934C81.8993 10.0765 82.0522 10.0122 82.2104 9.89398C82.3688 9.77553 82.4747 9.64621 82.5193 9.55438L82.5215 9.54981L83.988 6.59256L83.9886 6.59139C84.4325 5.70098 85.1233 5.04175 85.9967 5.04175Z" fill="#FFC400"/>
</g>
<g filter="url(#filter3_d_4002_637)">
<rect x="108" width="28" height="28" rx="14" fill="url(#paint3_linear_4002_637)" fill-opacity="0.1" shape-rendering="crispEdges"/>
<path d="M121.997 5.04175C122.871 5.04175 123.56 5.70219 124 6.59334L125.468 9.55438C125.512 9.64602 125.618 9.77506 125.777 9.89312C125.935 10.011 126.09 10.0761 126.193 10.0932L128.851 10.5385C129.811 10.6999 130.615 11.1705 130.877 11.99C131.138 12.8088 130.755 13.6597 130.065 14.3514L130.064 14.3522L127.999 16.4342C127.917 16.5167 127.826 16.6721 127.768 16.8746C127.711 17.0757 127.706 17.259 127.732 17.3773L127.732 17.379L128.323 19.9546C128.568 21.0265 128.487 22.0895 127.731 22.6453C126.972 23.2028 125.936 22.9557 124.994 22.3947L122.502 20.9076C122.397 20.8451 122.218 20.7944 122.001 20.7944C121.786 20.7944 121.602 20.8444 121.491 20.9092L121.489 20.9102L119.002 22.3944C118.062 22.9573 117.026 23.2001 116.268 22.6419C115.512 22.0861 115.427 21.0251 115.673 19.954L116.263 17.379L116.264 17.3773C116.29 17.259 116.284 17.0757 116.227 16.8746C116.17 16.6721 116.078 16.5167 115.996 16.4342L113.93 14.3506C113.244 13.6589 112.863 12.8087 113.122 11.9911C113.381 11.1711 114.185 10.6999 115.145 10.5385L117.801 10.0936L117.802 10.0934C117.899 10.0765 118.052 10.0122 118.21 9.89398C118.369 9.77553 118.475 9.64621 118.519 9.55438L118.522 9.54981L119.988 6.59256L119.989 6.59139C120.432 5.70098 121.123 5.04175 121.997 5.04175Z" fill="#FFC400"/>
</g>
<g filter="url(#filter4_d_4002_637)">
<rect x="144" width="28" height="28" rx="14" fill="url(#paint4_linear_4002_637)" fill-opacity="0.1" shape-rendering="crispEdges"/>
<path d="M157.997 5.04175C158.871 5.04175 159.56 5.70219 160 6.59334L161.468 9.55438C161.512 9.64602 161.618 9.77506 161.777 9.89312C161.935 10.011 162.09 10.0761 162.193 10.0932L164.851 10.5385C165.811 10.6999 166.615 11.1705 166.877 11.99C167.138 12.8088 166.755 13.6597 166.065 14.3514L166.064 14.3522L163.999 16.4342C163.917 16.5167 163.826 16.6721 163.768 16.8746C163.711 17.0757 163.706 17.259 163.732 17.3773L163.732 17.379L164.323 19.9546C164.568 21.0265 164.487 22.0895 163.731 22.6453C162.972 23.2028 161.936 22.9557 160.994 22.3947L158.502 20.9076C158.397 20.8451 158.218 20.7944 158.001 20.7944C157.786 20.7944 157.602 20.8444 157.491 20.9092L157.489 20.9102L155.002 22.3944C154.062 22.9573 153.026 23.2001 152.268 22.6419C151.512 22.0861 151.427 21.0251 151.673 19.954L152.263 17.379L152.264 17.3773C152.29 17.259 152.284 17.0757 152.227 16.8746C152.17 16.6721 152.078 16.5167 151.996 16.4342L149.93 14.3506C149.244 13.6589 148.863 12.8087 149.122 11.9911C149.381 11.1711 150.185 10.6999 151.145 10.5385L153.801 10.0936L153.802 10.0934C153.899 10.0765 154.052 10.0122 154.21 9.89398C154.369 9.77553 154.475 9.64621 154.519 9.55438L154.522 9.54981L155.988 6.59256L155.989 6.59139C156.432 5.70098 157.123 5.04175 157.997 5.04175Z" fill="#FFC400"/>
</g>
</g>
<defs>
<filter id="filter0_d_4002_637" x="-8" y="-4" width="44" height="44" filterUnits="userSpaceOnUse" color-interpolation-filters="sRGB">
<feFlood flood-opacity="0" result="BackgroundImageFix"/>
<feColorMatrix in="SourceAlpha" type="matrix" values="0 0 0 0 0 0 0 0 0 0 0 0 0 0 0 0 0 0 127 0" result="hardAlpha"/>
<feOffset dy="4"/>
<feGaussianBlur stdDeviation="4"/>
<feComposite in2="hardAlpha" operator="out"/>
<feColorMatrix type="matrix" values="0 0 0 0 0.0784314 0 0 0 0 0.105882 0 0 0 0 0.203922 0 0 0 0.08 0"/>
<feBlend mode="normal" in2="BackgroundImageFix" result="effect1_dropShadow_4002_637"/>
<feBlend mode="normal" in="SourceGraphic" in2="effect1_dropShadow_4002_637" result="shape"/>
</filter>
<filter id="filter1_d_4002_637" x="28" y="-4" width="44" height="44" filterUnits="userSpaceOnUse" color-interpolation-filters="sRGB">
<feFlood flood-opacity="0" result="BackgroundImageFix"/>
<feColorMatrix in="SourceAlpha" type="matrix" values="0 0 0 0 0 0 0 0 0 0 0 0 0 0 0 0 0 0 127 0" result="hardAlpha"/>
<feOffset dy="4"/>
<feGaussianBlur stdDeviation="4"/>
<feComposite in2="hardAlpha" operator="out"/>
<feColorMatrix type="matrix" values="0 0 0 0 0.0784314 0 0 0 0 0.105882 0 0 0 0 0.203922 0 0 0 0.08 0"/>
<feBlend mode="normal" in2="BackgroundImageFix" result="effect1_dropShadow_4002_637"/>
<feBlend mode="normal" in="SourceGraphic" in2="effect1_dropShadow_4002_637" result="shape"/>
</filter>
<filter id="filter2_d_4002_637" x="64" y="-4" width="44" height="44" filterUnits="userSpaceOnUse" color-interpolation-filters="sRGB">
<feFlood flood-opacity="0" result="BackgroundImageFix"/>
<feColorMatrix in="SourceAlpha" type="matrix" values="0 0 0 0 0 0 0 0 0 0 0 0 0 0 0 0 0 0 127 0" result="hardAlpha"/>
<feOffset dy="4"/>
<feGaussianBlur stdDeviation="4"/>
<feComposite in2="hardAlpha" operator="out"/>
<feColorMatrix type="matrix" values="0 0 0 0 0.0784314 0 0 0 0 0.105882 0 0 0 0 0.203922 0 0 0 0.08 0"/>
<feBlend mode="normal" in2="BackgroundImageFix" result="effect1_dropShadow_4002_637"/>
<feBlend mode="normal" in="SourceGraphic" in2="effect1_dropShadow_4002_637" result="shape"/>
</filter>
<filter id="filter3_d_4002_637" x="100" y="-4" width="44" height="44" filterUnits="userSpaceOnUse" color-interpolation-filters="sRGB">
<feFlood flood-opacity="0" result="BackgroundImageFix"/>
<feColorMatrix in="SourceAlpha" type="matrix" values="0 0 0 0 0 0 0 0 0 0 0 0 0 0 0 0 0 0 127 0" result="hardAlpha"/>
<feOffset dy="4"/>
<feGaussianBlur stdDeviation="4"/>
<feComposite in2="hardAlpha" operator="out"/>
<feColorMatrix type="matrix" values="0 0 0 0 0.0784314 0 0 0 0 0.105882 0 0 0 0 0.203922 0 0 0 0.08 0"/>
<feBlend mode="normal" in2="BackgroundImageFix" result="effect1_dropShadow_4002_637"/>
<feBlend mode="normal" in="SourceGraphic" in2="effect1_dropShadow_4002_637" result="shape"/>
</filter>
<filter id="filter4_d_4002_637" x="136" y="-4" width="44" height="44" filterUnits="userSpaceOnUse" color-interpolation-filters="sRGB">
<feFlood flood-opacity="0" result="BackgroundImageFix"/>
<feColorMatrix in="SourceAlpha" type="matrix" values="0 0 0 0 0 0 0 0 0 0 0 0 0 0 0 0 0 0 127 0" result="hardAlpha"/>
<feOffset dy="4"/>
<feGaussianBlur stdDeviation="4"/>
<feComposite in2="hardAlpha" operator="out"/>
<feColorMatrix type="matrix" values="0 0 0 0 0.0784314 0 0 0 0 0.105882 0 0 0 0 0.203922 0 0 0 0.08 0"/>
<feBlend mode="normal" in2="BackgroundImageFix" result="effect1_dropShadow_4002_637"/>
<feBlend mode="normal" in="SourceGraphic" in2="effect1_dropShadow_4002_637" result="shape"/>
</filter>
<linearGradient id="paint0_linear_4002_637" x1="14" y1="0" x2="14" y2="28" gradientUnits="userSpaceOnUse">
<stop stop-color="white"/>
<stop offset="1" stop-color="#F3F3F3"/>
</linearGradient>
<linearGradient id="paint1_linear_4002_637" x1="50" y1="0" x2="50" y2="28" gradientUnits="userSpaceOnUse">
<stop stop-color="white"/>
<stop offset="1" stop-color="#F3F3F3"/>
</linearGradient>
<linearGradient id="paint2_linear_4002_637" x1="86" y1="0" x2="86" y2="28" gradientUnits="userSpaceOnUse">
<stop stop-color="white"/>
<stop offset="1" stop-color="#F3F3F3"/>
</linearGradient>
<linearGradient id="paint3_linear_4002_637" x1="122" y1="0" x2="122" y2="28" gradientUnits="userSpaceOnUse">
<stop stop-color="white"/>
<stop offset="1" stop-color="#F3F3F3"/>
</linearGradient>
<linearGradient id="paint4_linear_4002_637" x1="158" y1="0" x2="158" y2="28" gradientUnits="userSpaceOnUse">
<stop stop-color="white"/>
<stop offset="1" stop-color="#F3F3F3"/>
</linearGradient>
<clipPath id="clip0_4002_637">
<rect width="172" height="28" fill="white"/>
</clipPath>
</defs>
</svg>
