<svg width="532" height="308" viewBox="0 0 532 308" fill="none" xmlns="http://www.w3.org/2000/svg">
<g clip-path="url(#clip0_4002_735)">
<g opacity="0.3" filter="url(#filter0_f_4002_735)">
<circle cx="209" cy="154" r="72" fill="#747474"/>
</g>
<rect width="570" height="87" rx="23.1965" fill="url(#paint0_linear_4002_735)"/>
<path d="M46.195 62.5242C56.8702 62.5242 65.5242 53.8702 65.5242 43.195C65.5242 32.5198 56.8702 23.8658 46.195 23.8658C35.5198 23.8658 26.8658 32.5198 26.8658 43.195C26.8658 53.8702 35.5198 62.5242 46.195 62.5242Z" stroke="#DDFF00" stroke-width="2.17" stroke-linejoin="round"/>
<path d="M37.4969 52.8596C42.0039 48.139 50.3376 47.9167 54.8931 52.8596M51.0178 38.3627C51.0178 41.0315 48.8512 43.195 46.1786 43.195C43.5061 43.195 41.3395 41.0315 41.3395 38.3627C41.3395 35.6939 43.5061 33.5304 46.1786 33.5304C48.8512 33.5304 51.0178 35.6939 51.0178 38.3627Z" stroke="#DDFF00" stroke-width="2.17" stroke-linejoin="round"/>
<rect x="100.035" y="34.7773" width="181.223" height="17.3974" rx="8.69869" fill="#747474"/>
<rect y="110.197" width="570" height="87" rx="23.1965" fill="url(#paint1_linear_4002_735)"/>
<path d="M27.0626 142.074L40.4258 149.646C45.3523 152.437 47.4338 152.437 52.3603 149.646L65.7235 142.074" stroke="#DDFF00" stroke-width="2.17467" stroke-linejoin="round"/>
<path d="M27.0931 156.525C27.2195 162.451 27.2827 165.414 29.4692 167.609C31.6557 169.803 34.6988 169.88 40.785 170.033C44.536 170.127 48.2501 170.127 52.0012 170.033C58.0874 169.88 61.1304 169.803 63.317 167.609C65.5035 165.414 65.5667 162.451 65.6929 156.525C65.7337 154.619 65.7337 152.725 65.6929 150.82C65.5667 144.894 65.5035 141.931 63.317 139.737C61.1304 137.542 58.0874 137.465 52.0012 137.312C48.2501 137.218 44.536 137.218 40.7849 137.312C34.6988 137.465 31.6557 137.542 29.4692 139.736C27.2826 141.931 27.2195 144.894 27.0931 150.82C27.0525 152.725 27.0525 154.619 27.0931 156.525Z" stroke="#DDFF00" stroke-width="2.17467" stroke-linejoin="round"/>
<rect x="100.035" y="144.974" width="181.223" height="17.3974" rx="8.69869" fill="#747474"/>
<rect y="220.393" width="570" height="87" rx="23.1965" fill="url(#paint2_linear_4002_735)"/>
<path fill-rule="evenodd" clip-rule="evenodd" d="M41.0771 274.684C41.0771 281.89 46.919 287.732 54.1252 287.732C61.3314 287.732 67.1732 281.89 67.1732 274.684C67.1732 267.478 61.3314 261.636 54.1252 261.636C46.919 261.636 41.0771 267.478 41.0771 274.684ZM60.314 270.306C60.597 271.055 60.2191 271.892 59.4702 272.175C58.8754 272.399 58.1591 272.897 57.3764 273.629C56.6105 274.345 55.862 275.209 55.1961 276.061C54.5331 276.909 53.9692 277.722 53.5708 278.324C53.2683 278.772 53.0338 279.156 52.9545 279.293C52.6798 279.753 52.173 280.025 51.6374 279.999C51.1013 279.972 50.6239 279.652 50.3962 279.166C49.869 278.041 49.4076 277.619 49.2075 277.477C49.158 277.442 49.1211 277.421 49.0989 277.41C48.3898 277.316 47.8428 276.708 47.8428 275.973C47.8428 275.173 48.4919 274.524 49.2926 274.524C49.4132 274.526 49.7082 274.549 49.9229 274.627C50.2052 274.713 50.5349 274.863 50.8879 275.114C51.1632 275.31 51.4448 275.561 51.7261 275.881C52.0682 275.391 52.4688 274.841 52.9122 274.275C53.6319 273.354 54.4826 272.366 55.3956 271.511C56.2919 270.673 57.3344 269.882 58.4453 269.462C59.1944 269.179 60.031 269.557 60.314 270.306Z" fill="#DDFF00"/>
<path d="M55.9257 246.172C57.6173 246.172 59.0133 246.172 60.1461 246.272C61.3243 246.377 62.4021 246.602 63.3951 247.165C64.5437 247.815 65.4977 248.75 66.1609 249.877C66.7343 250.851 66.9639 251.907 67.0706 253.063C67.1733 254.174 67.1733 255.543 67.1733 257.202V257.309C67.1733 258.373 67.1733 259.309 67.1493 260.119C67.1189 261.142 66.2491 261.947 65.2062 261.917C64.1633 261.888 63.3424 261.034 63.3727 260.012C63.3949 259.261 63.3951 258.378 63.3951 257.287C63.3951 255.521 63.3932 254.321 63.3078 253.397C63.2248 252.499 63.0748 252.045 62.8889 251.729C62.5572 251.166 62.0803 250.698 61.506 250.373C61.1837 250.191 60.7211 250.044 59.8051 249.962C58.8629 249.879 57.6389 249.877 55.8387 249.877H36.9475C35.1472 249.877 33.9232 249.879 32.9811 249.962C32.0649 250.044 31.6023 250.191 31.2802 250.373C30.7058 250.698 30.2289 251.166 29.8973 251.729C29.7113 252.045 29.5613 252.499 29.4783 253.397C29.3929 254.321 29.3911 255.521 29.3911 257.287C29.3911 259.052 29.3929 260.252 29.4783 261.176C29.5613 262.075 29.7113 262.528 29.8973 262.844C30.2289 263.408 30.7058 263.875 31.2802 264.2C31.6023 264.383 32.0649 264.53 32.9811 264.611C33.9232 264.695 35.1472 264.697 36.9475 264.697H37.8921C38.9354 264.697 39.7812 265.526 39.7812 266.549C39.7812 267.572 38.9354 268.402 37.8921 268.402H36.8605C35.1689 268.402 33.7729 268.402 32.64 268.301C31.4618 268.196 30.3841 267.971 29.3911 267.409C28.2424 266.759 27.2884 265.823 26.6252 264.697C26.0519 263.723 25.8223 262.666 25.7155 261.511C25.6128 260.4 25.6128 259.031 25.6129 257.372V257.201C25.6128 255.543 25.6128 254.174 25.7155 253.063C25.8223 251.907 26.0519 250.851 26.6252 249.877C27.2884 248.75 28.2424 247.815 29.3911 247.165C30.3841 246.602 31.4618 246.377 32.64 246.272C33.7729 246.172 35.1689 246.172 36.8605 246.172H55.9257Z" fill="#DDFF00"/>
<path fill-rule="evenodd" clip-rule="evenodd" d="M34.795 257.287C34.795 256.219 35.6605 255.354 36.7281 255.354H36.7454C37.813 255.354 38.6785 256.219 38.6785 257.287C38.6785 258.354 37.813 259.22 36.7454 259.22H36.7281C35.6605 259.22 34.795 258.354 34.795 257.287ZM44.4604 257.287C44.4604 256.219 45.3258 255.354 46.3934 255.354H46.4106C47.4782 255.354 48.3436 256.219 48.3436 257.287C48.3436 258.354 47.4782 259.22 46.4106 259.22H46.3934C45.3258 259.22 44.4604 258.354 44.4604 257.287ZM54.1256 257.287C54.1256 256.219 54.991 255.354 56.0586 255.354H56.0758C57.1434 255.354 58.0089 256.219 58.0089 257.287C58.0089 258.354 57.1434 259.22 56.0758 259.22H56.0586C54.991 259.22 54.1256 258.354 54.1256 257.287Z" fill="#DDFF00"/>
<rect x="100.035" y="255.354" width="181.223" height="17.3974" rx="8.69869" fill="#747474"/>
</g>
<defs>
<filter id="filter0_f_4002_735" x="-7" y="-62" width="432" height="432" filterUnits="userSpaceOnUse" color-interpolation-filters="sRGB">
<feFlood flood-opacity="0" result="BackgroundImageFix"/>
<feBlend mode="normal" in="SourceGraphic" in2="BackgroundImageFix" result="shape"/>
<feGaussianBlur stdDeviation="72" result="effect1_foregroundBlur_4002_735"/>
</filter>
<linearGradient id="paint0_linear_4002_735" x1="285" y1="0" x2="285" y2="87" gradientUnits="userSpaceOnUse">
<stop stop-color="#1E1E1E"/>
<stop offset="1" stop-color="#141414"/>
</linearGradient>
<linearGradient id="paint1_linear_4002_735" x1="285" y1="110.197" x2="285" y2="197.197" gradientUnits="userSpaceOnUse">
<stop stop-color="#1E1E1E"/>
<stop offset="1" stop-color="#141414"/>
</linearGradient>
<linearGradient id="paint2_linear_4002_735" x1="285" y1="220.393" x2="285" y2="307.393" gradientUnits="userSpaceOnUse">
<stop stop-color="#1E1E1E"/>
<stop offset="1" stop-color="#141414"/>
</linearGradient>
<clipPath id="clip0_4002_735">
<rect width="532" height="307.393" fill="white"/>
</clipPath>
</defs>
</svg>
