<svg width="434" height="432" viewBox="0 0 434 432" fill="none" xmlns="http://www.w3.org/2000/svg">
<mask id="path-2-outside-1_4002_384" maskUnits="userSpaceOnUse" x="88.9549" y="109.692" width="141" height="169" fill="black">
<rect fill="white" x="88.9549" y="109.692" width="141" height="169"/>
<path fill-rule="evenodd" clip-rule="evenodd" d="M99.7775 244.112C97.6664 244.112 95.9549 242.401 95.9549 240.29L95.9549 120.515C95.9549 118.403 97.6664 116.692 99.7775 116.692H219.552C221.664 116.692 223.375 118.403 223.375 120.515V157.149C223.375 160.029 220.225 161.948 217.379 161.511C216.426 161.365 215.45 161.289 214.456 161.289C203.9 161.289 195.343 169.846 195.343 180.402C195.343 190.958 203.9 199.515 214.456 199.515C215.45 199.515 216.426 199.439 217.379 199.293C220.225 198.856 223.375 200.775 223.375 203.655V240.29C223.375 242.401 221.664 244.112 219.552 244.112H182.918C180.038 244.112 178.119 247.262 178.556 250.108C178.702 251.061 178.778 252.037 178.778 253.032C178.778 263.587 170.221 272.145 159.665 272.145C149.109 272.145 140.552 263.587 140.552 253.032C140.552 252.037 140.628 251.061 140.774 250.108C141.211 247.262 139.292 244.112 136.412 244.112H99.7775Z"/>
</mask>
<path fill-rule="evenodd" clip-rule="evenodd" d="M99.7775 244.112C97.6664 244.112 95.9549 242.401 95.9549 240.29L95.9549 120.515C95.9549 118.403 97.6664 116.692 99.7775 116.692H219.552C221.664 116.692 223.375 118.403 223.375 120.515V157.149C223.375 160.029 220.225 161.948 217.379 161.511C216.426 161.365 215.45 161.289 214.456 161.289C203.9 161.289 195.343 169.846 195.343 180.402C195.343 190.958 203.9 199.515 214.456 199.515C215.45 199.515 216.426 199.439 217.379 199.293C220.225 198.856 223.375 200.775 223.375 203.655V240.29C223.375 242.401 221.664 244.112 219.552 244.112H182.918C180.038 244.112 178.119 247.262 178.556 250.108C178.702 251.061 178.778 252.037 178.778 253.032C178.778 263.587 170.221 272.145 159.665 272.145C149.109 272.145 140.552 263.587 140.552 253.032C140.552 252.037 140.628 251.061 140.774 250.108C141.211 247.262 139.292 244.112 136.412 244.112H99.7775Z" fill="url(#paint0_linear_4002_384)"/>
<path d="M217.379 161.511L218.364 155.098L217.379 161.511ZM217.379 199.293L216.395 192.88L217.379 199.293ZM140.774 250.108L134.361 249.124L140.774 250.108ZM89.4666 120.515L89.4666 240.29H102.443L102.443 120.515L89.4666 120.515ZM219.552 110.204H99.7775V123.18H219.552V110.204ZM229.863 157.149V120.515H216.887V157.149H229.863ZM214.456 167.777C215.119 167.777 215.766 167.828 216.395 167.924L218.364 155.098C217.086 154.902 215.78 154.801 214.456 154.801V167.777ZM201.831 180.402C201.831 173.43 207.483 167.777 214.456 167.777V154.801C200.316 154.801 188.854 166.263 188.854 180.402H201.831ZM214.456 193.027C207.483 193.027 201.831 187.374 201.831 180.402H188.854C188.854 194.541 200.316 206.003 214.456 206.003V193.027ZM216.395 192.88C215.766 192.976 215.119 193.027 214.456 193.027V206.003C215.78 206.003 217.086 205.902 218.364 205.706L216.395 192.88ZM229.863 240.29V203.655H216.887V240.29H229.863ZM182.918 250.6H219.552V237.624H182.918V250.6ZM185.266 253.032C185.266 251.707 185.165 250.401 184.969 249.123L172.143 251.092C172.239 251.721 172.29 252.368 172.29 253.032H185.266ZM159.665 278.633C173.804 278.633 185.266 267.171 185.266 253.032H172.29C172.29 260.004 166.637 265.656 159.665 265.656V278.633ZM134.064 253.032C134.064 267.171 145.526 278.633 159.665 278.633V265.656C152.693 265.656 147.04 260.004 147.04 253.032H134.064ZM134.361 249.124C134.165 250.401 134.064 251.707 134.064 253.032H147.04C147.04 252.368 147.091 251.721 147.187 251.092L134.361 249.124ZM99.7775 250.6H136.412V237.624H99.7775V250.6ZM182.918 237.624C178.903 237.624 175.869 239.858 174.145 242.369C172.458 244.826 171.665 247.982 172.143 251.092L184.969 249.123C185.01 249.388 184.958 249.546 184.841 249.716C184.762 249.832 184.583 250.045 184.248 250.242C183.888 250.454 183.42 250.6 182.918 250.6V237.624ZM216.887 240.29C216.887 238.817 218.08 237.624 219.552 237.624V250.6C225.247 250.6 229.863 245.984 229.863 240.29H216.887ZM216.887 157.149C216.887 156.647 217.033 156.179 217.245 155.819C217.442 155.484 217.655 155.305 217.771 155.226C217.941 155.109 218.099 155.057 218.364 155.098L216.395 167.924C219.505 168.402 222.661 167.609 225.118 165.922C227.629 164.198 229.863 161.164 229.863 157.149H216.887ZM218.364 205.706C218.099 205.747 217.941 205.695 217.771 205.579C217.655 205.499 217.442 205.32 217.245 204.985C217.033 204.625 216.887 204.158 216.887 203.655H229.863C229.863 199.64 227.629 196.607 225.118 194.882C222.661 193.195 219.505 192.402 216.395 192.88L218.364 205.706ZM147.187 251.092C147.665 247.982 146.872 244.826 145.185 242.369C143.46 239.858 140.427 237.624 136.412 237.624V250.6C135.91 250.6 135.442 250.454 135.082 250.242C134.747 250.045 134.568 249.832 134.489 249.716C134.372 249.546 134.32 249.388 134.361 249.124L147.187 251.092ZM219.552 123.18C218.08 123.18 216.887 121.987 216.887 120.515H229.863C229.863 114.82 225.247 110.204 219.552 110.204V123.18ZM89.4666 240.29C89.4666 245.984 94.083 250.6 99.7775 250.6V237.624C101.25 237.624 102.443 238.817 102.443 240.29H89.4666ZM102.443 120.515C102.443 121.987 101.25 123.18 99.7775 123.18V110.204C94.083 110.204 89.4666 114.82 89.4666 120.515L102.443 120.515Z" fill="#0D0D0D" mask="url(#path-2-outside-1_4002_384)"/>
<mask id="path-5-outside-2_4002_384" maskUnits="userSpaceOnUse" x="88.9549" y="237.112" width="169" height="141" fill="black">
<rect fill="white" x="88.9549" y="237.112" width="169" height="141"/>
<path fill-rule="evenodd" clip-rule="evenodd" d="M140.578 250.054C140.993 247.223 139.078 244.112 136.216 244.112H99.7775C97.6664 244.112 95.9549 245.824 95.9549 247.935L95.9549 367.71C95.9549 369.821 97.6664 371.532 99.7775 371.532H219.552C221.664 371.532 223.375 369.821 223.375 367.71V331.075C223.375 328.196 226.525 326.276 229.371 326.713C230.324 326.859 231.3 326.935 232.294 326.935C242.85 326.935 251.407 318.378 251.407 307.822C251.407 297.266 242.85 288.709 232.294 288.709C231.3 288.709 230.324 288.785 229.371 288.931C226.525 289.368 223.375 287.449 223.375 284.569V247.935C223.375 245.824 221.664 244.112 219.552 244.112H182.758C179.896 244.112 177.981 247.223 178.397 250.054C178.531 250.968 178.6 251.903 178.6 252.854C178.6 263.41 170.043 271.967 159.487 271.967C148.931 271.967 140.374 263.41 140.374 252.854C140.374 251.903 140.444 250.968 140.578 250.054Z"/>
</mask>
<path fill-rule="evenodd" clip-rule="evenodd" d="M140.578 250.054C140.993 247.223 139.078 244.112 136.216 244.112H99.7775C97.6664 244.112 95.9549 245.824 95.9549 247.935L95.9549 367.71C95.9549 369.821 97.6664 371.532 99.7775 371.532H219.552C221.664 371.532 223.375 369.821 223.375 367.71V331.075C223.375 328.196 226.525 326.276 229.371 326.713C230.324 326.859 231.3 326.935 232.294 326.935C242.85 326.935 251.407 318.378 251.407 307.822C251.407 297.266 242.85 288.709 232.294 288.709C231.3 288.709 230.324 288.785 229.371 288.931C226.525 289.368 223.375 287.449 223.375 284.569V247.935C223.375 245.824 221.664 244.112 219.552 244.112H182.758C179.896 244.112 177.981 247.223 178.397 250.054C178.531 250.968 178.6 251.903 178.6 252.854C178.6 263.41 170.043 271.967 159.487 271.967C148.931 271.967 140.374 263.41 140.374 252.854C140.374 251.903 140.444 250.968 140.578 250.054Z" fill="url(#paint1_linear_4002_384)"/>
<path d="M159.487 271.967V278.455V271.967ZM178.397 250.054L184.816 249.112L178.397 250.054ZM140.578 250.054L134.158 249.112L140.578 250.054ZM136.216 237.624H99.7775V250.6H136.216V237.624ZM89.4666 247.935L89.4666 367.71H102.443L102.443 247.935L89.4666 247.935ZM99.7775 378.021H219.552V365.044H99.7775V378.021ZM229.863 367.71V331.075H216.887V367.71H229.863ZM228.386 333.126C229.664 333.322 230.97 333.424 232.294 333.424V320.447C231.631 320.447 230.984 320.396 230.355 320.3L228.386 333.126ZM232.294 333.424C246.434 333.424 257.896 321.961 257.896 307.822H244.919C244.919 314.795 239.267 320.447 232.294 320.447V333.424ZM257.896 307.822C257.896 293.683 246.434 282.221 232.294 282.221V295.197C239.267 295.197 244.919 300.85 244.919 307.822H257.896ZM232.294 282.221C230.97 282.221 229.664 282.322 228.386 282.518L230.355 295.345C230.984 295.248 231.631 295.197 232.294 295.197V282.221ZM229.863 284.569V247.935H216.887V284.569H229.863ZM219.552 237.624H182.758V250.6H219.552V237.624ZM171.977 250.996C172.065 251.599 172.112 252.219 172.112 252.854H185.088C185.088 251.586 184.996 250.337 184.816 249.112L171.977 250.996ZM172.112 252.854C172.112 259.826 166.46 265.478 159.487 265.478V278.455C173.626 278.455 185.088 266.993 185.088 252.854H172.112ZM159.487 265.478C152.515 265.478 146.862 259.826 146.862 252.854H133.886C133.886 266.993 145.348 278.455 159.487 278.455V265.478ZM146.862 252.854C146.862 252.219 146.909 251.599 146.997 250.996L134.158 249.112C133.978 250.337 133.886 251.586 133.886 252.854H146.862ZM182.758 237.624C178.77 237.624 175.746 239.83 174.016 242.325C172.324 244.765 171.523 247.901 171.977 250.996L184.816 249.112C184.855 249.376 184.803 249.541 184.68 249.718C184.598 249.837 184.417 250.05 184.081 250.246C183.722 250.456 183.257 250.6 182.758 250.6V237.624ZM229.863 247.935C229.863 242.24 225.247 237.624 219.552 237.624V250.6C218.08 250.6 216.887 249.407 216.887 247.935H229.863ZM228.386 282.518C228.651 282.478 228.809 282.529 228.979 282.646C229.095 282.725 229.308 282.904 229.505 283.239C229.717 283.599 229.863 284.067 229.863 284.569H216.887C216.887 288.584 219.121 291.618 221.632 293.342C224.089 295.029 227.245 295.822 230.355 295.345L228.386 282.518ZM229.863 331.075C229.863 331.578 229.717 332.045 229.505 332.405C229.308 332.74 229.095 332.919 228.979 332.999C228.809 333.116 228.651 333.167 228.386 333.126L230.355 320.3C227.245 319.822 224.089 320.615 221.632 322.302C219.121 324.027 216.887 327.06 216.887 331.075H229.863ZM219.552 378.021C225.247 378.021 229.863 373.404 229.863 367.71H216.887C216.887 366.237 218.08 365.044 219.552 365.044V378.021ZM89.4666 367.71C89.4666 373.404 94.083 378.021 99.7775 378.021V365.044C101.25 365.044 102.443 366.237 102.443 367.71H89.4666ZM99.7775 237.624C94.083 237.624 89.4666 242.24 89.4666 247.935L102.443 247.935C102.443 249.407 101.25 250.6 99.7775 250.6V237.624ZM136.216 250.6C135.718 250.6 135.253 250.456 134.893 250.246C134.557 250.05 134.376 249.837 134.294 249.718C134.171 249.541 134.119 249.376 134.158 249.112L146.997 250.996C147.452 247.901 146.65 244.765 144.958 242.325C143.228 239.83 140.204 237.624 136.216 237.624V250.6Z" fill="#0D0D0D" mask="url(#path-5-outside-2_4002_384)"/>
<mask id="path-8-outside-3_4002_384" maskUnits="userSpaceOnUse" x="216.375" y="209.08" width="141" height="169" fill="black">
<rect fill="white" x="216.375" y="209.08" width="141" height="169"/>
<path fill-rule="evenodd" clip-rule="evenodd" d="M267.972 235.193C267.972 236.187 268.048 237.163 268.194 238.116C268.631 240.962 266.712 244.112 263.832 244.112H227.198C225.086 244.112 223.375 245.823 223.375 247.935V284.569C223.375 287.449 226.525 289.368 229.371 288.931C230.324 288.785 231.3 288.709 232.294 288.709C242.85 288.709 251.407 297.266 251.407 307.822C251.407 318.378 242.85 326.935 232.294 326.935C231.3 326.935 230.324 326.859 229.371 326.713C226.525 326.276 223.375 328.196 223.375 331.075V367.71C223.375 369.821 225.086 371.532 227.198 371.532H346.973C349.084 371.532 350.795 369.821 350.795 367.71V247.935C350.795 245.823 349.084 244.112 346.973 244.112H310.338C307.458 244.112 305.539 240.963 305.976 238.116C306.122 237.163 306.198 236.187 306.198 235.193C306.198 224.637 297.641 216.08 287.085 216.08C276.529 216.08 267.972 224.637 267.972 235.193Z"/>
</mask>
<path fill-rule="evenodd" clip-rule="evenodd" d="M267.972 235.193C267.972 236.187 268.048 237.163 268.194 238.116C268.631 240.962 266.712 244.112 263.832 244.112H227.198C225.086 244.112 223.375 245.823 223.375 247.935V284.569C223.375 287.449 226.525 289.368 229.371 288.931C230.324 288.785 231.3 288.709 232.294 288.709C242.85 288.709 251.407 297.266 251.407 307.822C251.407 318.378 242.85 326.935 232.294 326.935C231.3 326.935 230.324 326.859 229.371 326.713C226.525 326.276 223.375 328.196 223.375 331.075V367.71C223.375 369.821 225.086 371.532 227.198 371.532H346.973C349.084 371.532 350.795 369.821 350.795 367.71V247.935C350.795 245.823 349.084 244.112 346.973 244.112H310.338C307.458 244.112 305.539 240.963 305.976 238.116C306.122 237.163 306.198 236.187 306.198 235.193C306.198 224.637 297.641 216.08 287.085 216.08C276.529 216.08 267.972 224.637 267.972 235.193Z" fill="url(#paint2_linear_4002_384)"/>
<path d="M268.194 238.116L261.781 239.101L268.194 238.116ZM274.607 237.132C274.511 236.503 274.46 235.856 274.46 235.193H261.484C261.484 236.517 261.585 237.823 261.781 239.101L274.607 237.132ZM227.198 250.6H263.832V237.624H227.198V250.6ZM229.863 284.569V247.935H216.887V284.569H229.863ZM230.355 295.345C230.984 295.248 231.631 295.197 232.294 295.197V282.221C230.97 282.221 229.664 282.322 228.386 282.518L230.355 295.345ZM232.294 295.197C239.267 295.197 244.919 300.85 244.919 307.822H257.896C257.896 293.683 246.434 282.221 232.294 282.221V295.197ZM244.919 307.822C244.919 314.795 239.267 320.447 232.294 320.447V333.423C246.434 333.423 257.896 321.961 257.896 307.822H244.919ZM232.294 320.447C231.631 320.447 230.984 320.396 230.355 320.3L228.386 333.126C229.664 333.322 230.97 333.423 232.294 333.423V320.447ZM229.863 367.71V331.075H216.887V367.71H229.863ZM346.973 365.044H227.198V378.02H346.973V365.044ZM344.307 247.935V367.71H357.283V247.935H344.307ZM310.338 250.6H346.973V237.624H310.338V250.6ZM299.71 235.193C299.71 235.856 299.659 236.503 299.563 237.132L312.389 239.101C312.585 237.823 312.686 236.517 312.686 235.193H299.71ZM287.085 222.568C294.057 222.568 299.71 228.22 299.71 235.193H312.686C312.686 221.053 301.224 209.591 287.085 209.591V222.568ZM274.46 235.193C274.46 228.22 280.113 222.568 287.085 222.568V209.591C272.946 209.591 261.484 221.053 261.484 235.193H274.46ZM357.283 247.935C357.283 242.24 352.667 237.624 346.973 237.624V250.6C345.5 250.6 344.307 249.407 344.307 247.935H357.283ZM346.973 378.02C352.667 378.02 357.283 373.404 357.283 367.71H344.307C344.307 366.237 345.5 365.044 346.973 365.044V378.02ZM216.887 367.71C216.887 373.404 221.503 378.02 227.198 378.02V365.044C228.67 365.044 229.863 366.237 229.863 367.71H216.887ZM216.887 284.569C216.887 288.584 219.121 291.618 221.632 293.342C224.089 295.029 227.245 295.822 230.355 295.345L228.386 282.518C228.651 282.477 228.809 282.529 228.979 282.646C229.095 282.725 229.308 282.904 229.505 283.239C229.717 283.599 229.863 284.067 229.863 284.569H216.887ZM230.355 320.3C227.245 319.822 224.089 320.615 221.632 322.302C219.121 324.027 216.887 327.06 216.887 331.075H229.863C229.863 331.578 229.717 332.045 229.505 332.405C229.308 332.74 229.095 332.919 228.979 332.999C228.809 333.115 228.651 333.167 228.386 333.126L230.355 320.3ZM227.198 237.624C221.503 237.624 216.887 242.24 216.887 247.935H229.863C229.863 249.407 228.67 250.6 227.198 250.6V237.624ZM310.338 237.624C310.84 237.624 311.308 237.77 311.668 237.982C312.003 238.179 312.182 238.392 312.262 238.508C312.378 238.678 312.43 238.836 312.389 239.101L299.563 237.132C299.085 240.242 299.878 243.399 301.565 245.855C303.29 248.366 306.323 250.6 310.338 250.6V237.624ZM261.781 239.101C261.74 238.836 261.792 238.678 261.909 238.508C261.988 238.392 262.167 238.179 262.502 237.982C262.862 237.77 263.33 237.624 263.832 237.624V250.6C267.847 250.6 270.881 248.366 272.605 245.855C274.292 243.399 275.085 240.242 274.607 237.132L261.781 239.101Z" fill="#0D0D0D" mask="url(#path-8-outside-3_4002_384)"/>
<mask id="path-11-outside-4_4002_384" maskUnits="userSpaceOnUse" x="206.154" y="17.5696" width="220.056" height="217.243" fill="black">
<rect fill="white" x="206.154" y="17.5696" width="220.056" height="217.243"/>
<path fill-rule="evenodd" clip-rule="evenodd" d="M323.568 204.388C321.972 205.771 319.558 205.599 318.175 204.003L294.176 176.324C292.29 174.149 288.653 174.762 286.789 176.956C286.164 177.691 285.476 178.388 284.725 179.039C276.75 185.954 264.679 185.095 257.764 177.119C250.849 169.144 251.708 157.072 259.684 150.157C260.435 149.506 261.222 148.924 262.038 148.41C264.475 146.876 265.597 143.362 263.711 141.187L239.712 113.507C238.329 111.912 238.501 109.498 240.096 108.115L330.592 29.6518C332.187 28.2688 334.602 28.4408 335.985 30.0359L414.448 120.532C415.831 122.127 415.659 124.541 414.064 125.924L386.384 149.923C384.209 151.81 380.695 150.687 379.161 148.251C378.647 147.435 378.065 146.647 377.414 145.896C370.499 137.921 358.427 137.061 350.452 143.976C342.476 150.891 341.617 162.962 348.532 170.938C349.183 171.689 349.88 172.377 350.615 173.001C352.809 174.865 353.422 178.502 351.247 180.389L323.568 204.388Z"/>
</mask>
<path fill-rule="evenodd" clip-rule="evenodd" d="M323.568 204.388C321.972 205.771 319.558 205.599 318.175 204.003L294.176 176.324C292.29 174.149 288.653 174.762 286.789 176.956C286.164 177.691 285.476 178.388 284.725 179.039C276.75 185.954 264.679 185.095 257.764 177.119C250.849 169.144 251.708 157.072 259.684 150.157C260.435 149.506 261.222 148.924 262.038 148.41C264.475 146.876 265.597 143.362 263.711 141.187L239.712 113.507C238.329 111.912 238.501 109.498 240.096 108.115L330.592 29.6518C332.187 28.2688 334.602 28.4408 335.985 30.0359L414.448 120.532C415.831 122.127 415.659 124.541 414.064 125.924L386.384 149.923C384.209 151.81 380.695 150.687 379.161 148.251C378.647 147.435 378.065 146.647 377.414 145.896C370.499 137.921 358.427 137.061 350.452 143.976C342.476 150.891 341.617 162.962 348.532 170.938C349.183 171.689 349.88 172.377 350.615 173.001C352.809 174.865 353.422 178.502 351.247 180.389L323.568 204.388Z" fill="#DDFF00"/>
<path d="M351.247 180.389L346.996 175.486L351.247 180.389ZM386.384 149.923L382.134 145.021L386.384 149.923ZM379.161 148.251L384.651 144.793L379.161 148.251ZM414.064 125.924L418.314 130.827L414.064 125.924ZM323.568 204.388L327.818 209.29L323.568 204.388ZM263.711 141.187L258.809 145.437L263.711 141.187ZM286.789 176.956L291.734 181.157L286.789 176.956ZM289.274 180.575L313.273 208.254L323.077 199.753L299.079 172.074L289.274 180.575ZM288.976 183.942C289.977 183.074 290.897 182.142 291.734 181.157L281.844 172.755C281.432 173.24 280.976 173.702 280.475 174.137L288.976 183.942ZM252.861 181.37C262.124 192.052 278.293 193.204 288.976 183.942L280.475 174.137C275.207 178.705 267.234 178.137 262.666 172.869L252.861 181.37ZM255.433 145.255C244.751 154.518 243.599 170.687 252.861 181.37L262.666 172.869C258.098 167.601 258.666 159.627 263.934 155.06L255.433 145.255ZM258.581 142.92C257.487 143.609 256.434 144.387 255.433 145.255L263.934 155.06C264.436 154.625 264.958 154.239 265.496 153.901L258.581 142.92ZM234.81 117.758L258.809 145.437L268.613 136.936L244.614 109.257L234.81 117.758ZM326.342 24.7495L235.846 103.213L244.347 113.017L334.843 34.5541L326.342 24.7495ZM419.35 116.282L340.887 25.7854L331.082 34.2863L409.546 124.783L419.35 116.282ZM390.635 154.825L418.314 130.827L409.813 121.022L382.134 145.021L390.635 154.825ZM372.511 150.147C372.946 150.648 373.332 151.17 373.67 151.708L384.651 144.793C383.962 143.699 383.184 142.647 382.316 141.646L372.511 150.147ZM354.702 148.878C359.97 144.311 367.944 144.879 372.511 150.147L382.316 141.646C373.053 130.963 356.884 129.811 346.202 139.074L354.702 148.878ZM353.434 166.687C348.866 161.419 349.434 153.446 354.702 148.878L346.202 139.074C335.519 148.336 334.367 164.505 343.629 175.188L353.434 166.687ZM354.816 168.056C354.331 167.644 353.869 167.188 353.434 166.687L343.629 175.188C344.497 176.189 345.429 177.109 346.414 177.946L354.816 168.056ZM327.818 209.29L355.497 185.291L346.996 175.486L319.317 199.485L327.818 209.29ZM346.414 177.946C346.21 177.773 346.145 177.62 346.122 177.415C346.107 177.275 346.102 176.997 346.226 176.628C346.359 176.233 346.617 175.816 346.996 175.486L355.497 185.291C358.531 182.661 359.359 178.985 359.017 175.959C358.683 172.997 357.214 170.093 354.816 168.056L346.414 177.946ZM382.134 145.021C382.514 144.692 382.963 144.496 383.373 144.42C383.756 144.349 384.03 144.393 384.167 144.429C384.366 144.481 384.509 144.567 384.651 144.793L373.67 151.708C375.347 154.371 378.014 156.236 380.898 156.987C383.846 157.754 387.601 157.456 390.635 154.825L382.134 145.021ZM409.546 124.783C408.581 123.67 408.701 121.987 409.813 121.022L418.314 130.827C422.617 127.096 423.081 120.584 419.35 116.282L409.546 124.783ZM334.843 34.5541C333.73 35.5185 332.047 35.3986 331.082 34.2863L340.887 25.7854C337.156 21.4829 330.644 21.0191 326.342 24.7495L334.843 34.5541ZM244.614 109.257C245.579 110.369 245.459 112.053 244.347 113.017L235.846 103.213C231.543 106.943 231.079 113.455 234.81 117.758L244.614 109.257ZM313.273 208.254C317.003 212.556 323.515 213.02 327.818 209.29L319.317 199.485C320.429 198.521 322.113 198.641 323.077 199.753L313.273 208.254ZM265.496 153.901C268.159 152.224 270.024 149.557 270.775 146.673C271.542 143.725 271.243 139.97 268.613 136.936L258.809 145.437C258.479 145.057 258.284 144.608 258.208 144.198C258.137 143.815 258.181 143.541 258.217 143.404C258.269 143.205 258.355 143.062 258.581 142.92L265.496 153.901ZM299.079 172.074C296.448 169.04 292.773 168.212 289.746 168.554C286.785 168.888 283.881 170.357 281.844 172.755L291.734 181.157C291.561 181.361 291.407 181.426 291.202 181.449C291.062 181.464 290.785 181.469 290.416 181.345C290.02 181.212 289.603 180.954 289.274 180.575L299.079 172.074Z" fill="#0D0D0D" mask="url(#path-11-outside-4_4002_384)"/>
<g opacity="0.3" filter="url(#filter0_f_4002_384)">
<circle cx="216" cy="216" r="72" fill="#747474"/>
</g>
<defs>
<filter id="filter0_f_4002_384" x="0" y="0" width="432" height="432" filterUnits="userSpaceOnUse" color-interpolation-filters="sRGB">
<feFlood flood-opacity="0" result="BackgroundImageFix"/>
<feBlend mode="normal" in="SourceGraphic" in2="BackgroundImageFix" result="shape"/>
<feGaussianBlur stdDeviation="72" result="effect1_foregroundBlur_4002_384"/>
</filter>
<linearGradient id="paint0_linear_4002_384" x1="159.665" y1="116.692" x2="159.665" y2="272.145" gradientUnits="userSpaceOnUse">
<stop stop-color="#1E1E1E"/>
<stop offset="1" stop-color="#141414"/>
</linearGradient>
<linearGradient id="paint1_linear_4002_384" x1="173.681" y1="244.112" x2="173.681" y2="371.532" gradientUnits="userSpaceOnUse">
<stop stop-color="#1E1E1E"/>
<stop offset="1" stop-color="#141414"/>
</linearGradient>
<linearGradient id="paint2_linear_4002_384" x1="287.085" y1="216.08" x2="287.085" y2="371.532" gradientUnits="userSpaceOnUse">
<stop stop-color="#1E1E1E"/>
<stop offset="1" stop-color="#141414"/>
</linearGradient>
</defs>
</svg>
