<svg width="149" height="20" viewBox="0 0 149 20" fill="none" xmlns="http://www.w3.org/2000/svg">
<path d="M10.4967 1.04175C11.3712 1.04175 12.0599 1.70219 12.4996 2.59334L13.968 5.55438C14.0125 5.64602 14.1181 5.77506 14.2767 5.89312C14.4352 6.01104 14.5905 6.07609 14.6926 6.09325L17.3506 6.53852C18.3107 6.69986 19.1155 7.17049 19.3767 7.99C19.6377 8.80883 19.2553 9.65975 18.5648 10.3514L18.5642 10.3522L16.4992 12.4342C16.4174 12.5167 16.3257 12.6721 16.2682 12.8746C16.2112 13.0757 16.2061 13.259 16.232 13.3773L16.2323 13.379L16.8231 15.9546C17.0682 17.0265 16.9869 18.0895 16.2309 18.6453C15.4722 19.2028 14.4356 18.9557 13.4937 18.3947L11.0022 16.9076C10.8975 16.8451 10.7178 16.7944 10.5009 16.7944C10.2856 16.7944 10.1022 16.8444 9.99066 16.9092L9.98908 16.9102L7.5024 18.3944C6.56171 18.9573 5.52628 19.2001 4.76759 18.6419C4.01207 18.0861 3.92678 17.0251 4.17259 15.954L4.76325 13.379L4.76361 13.3773C4.78951 13.259 4.78444 13.0757 4.72733 12.8746C4.66983 12.6721 4.57816 12.5167 4.49631 12.4342L2.42987 10.3506C1.74387 9.65892 1.36267 8.80875 1.62162 7.99112C1.88132 7.17112 2.68452 6.69991 3.64527 6.53847L6.3011 6.09357L6.30194 6.09343C6.39931 6.07654 6.55225 6.01222 6.7104 5.89398C6.86884 5.77553 6.97466 5.64621 7.01926 5.55438L7.02151 5.54981L8.48801 2.59256L8.4886 2.59139C8.9325 1.70098 9.62333 1.04175 10.4967 1.04175Z" fill="#DDFF00"/>
<path d="M42.4967 1.04175C43.3712 1.04175 44.0599 1.70219 44.4996 2.59334L45.968 5.55438C46.0125 5.64602 46.1181 5.77506 46.2767 5.89312C46.4352 6.01104 46.5905 6.07609 46.6926 6.09325L49.3506 6.53852C50.3107 6.69986 51.1155 7.17049 51.3767 7.99C51.6377 8.80883 51.2553 9.65975 50.5648 10.3514L50.5642 10.3522L48.4992 12.4342C48.4174 12.5167 48.3257 12.6721 48.2682 12.8746C48.2112 13.0757 48.2061 13.259 48.232 13.3773L48.2323 13.379L48.8231 15.9546C49.0682 17.0265 48.9869 18.0895 48.2309 18.6453C47.4722 19.2028 46.4356 18.9557 45.4937 18.3947L43.0022 16.9076C42.8975 16.8451 42.7178 16.7944 42.5009 16.7944C42.2856 16.7944 42.1022 16.8444 41.9907 16.9092L41.9891 16.9102L39.5024 18.3944C38.5617 18.9573 37.5263 19.2001 36.7676 18.6419C36.0121 18.0861 35.9268 17.0251 36.1726 15.954L36.7632 13.379L36.7636 13.3773C36.7895 13.259 36.7844 13.0757 36.7273 12.8746C36.6698 12.6721 36.5782 12.5167 36.4963 12.4342L34.4299 10.3506C33.7439 9.65892 33.3627 8.80875 33.6216 7.99112C33.8813 7.17112 34.6845 6.69991 35.6453 6.53847L38.3011 6.09357L38.3019 6.09343C38.3993 6.07654 38.5522 6.01222 38.7104 5.89398C38.8688 5.77553 38.9747 5.64621 39.0193 5.55438L39.0215 5.54981L40.488 2.59256L40.4886 2.59139C40.9325 1.70098 41.6233 1.04175 42.4967 1.04175Z" fill="#DDFF00"/>
<path d="M74.4967 1.04175C75.3712 1.04175 76.0599 1.70219 76.4996 2.59334L77.968 5.55438C78.0125 5.64602 78.1181 5.77506 78.2767 5.89312C78.4352 6.01104 78.5905 6.07609 78.6926 6.09325L81.3506 6.53852C82.3107 6.69986 83.1155 7.17049 83.3767 7.99C83.6377 8.80883 83.2553 9.65975 82.5648 10.3514L82.5642 10.3522L80.4992 12.4342C80.4174 12.5167 80.3257 12.6721 80.2682 12.8746C80.2112 13.0757 80.2061 13.259 80.232 13.3773L80.2323 13.379L80.8231 15.9546C81.0682 17.0265 80.9869 18.0895 80.2309 18.6453C79.4722 19.2028 78.4356 18.9557 77.4937 18.3947L75.0022 16.9076C74.8975 16.8451 74.7178 16.7944 74.5009 16.7944C74.2856 16.7944 74.1022 16.8444 73.9907 16.9092L73.9891 16.9102L71.5024 18.3944C70.5617 18.9573 69.5263 19.2001 68.7676 18.6419C68.0121 18.0861 67.9268 17.0251 68.1726 15.954L68.7632 13.379L68.7636 13.3773C68.7895 13.259 68.7844 13.0757 68.7273 12.8746C68.6698 12.6721 68.5782 12.5167 68.4963 12.4342L66.4299 10.3506C65.7439 9.65892 65.3627 8.80875 65.6216 7.99112C65.8813 7.17112 66.6845 6.69991 67.6453 6.53847L70.3011 6.09357L70.3019 6.09343C70.3993 6.07654 70.5522 6.01222 70.7104 5.89398C70.8688 5.77553 70.9747 5.64621 71.0193 5.55438L71.0215 5.54981L72.488 2.59256L72.4886 2.59139C72.9325 1.70098 73.6233 1.04175 74.4967 1.04175Z" fill="#DDFF00"/>
<path d="M106.497 1.04175C107.371 1.04175 108.06 1.70219 108.5 2.59334L109.968 5.55438C110.012 5.64602 110.118 5.77506 110.277 5.89312C110.435 6.01104 110.59 6.07609 110.693 6.09325L113.351 6.53852C114.311 6.69986 115.115 7.17049 115.377 7.99C115.638 8.80883 115.255 9.65975 114.565 10.3514L114.564 10.3522L112.499 12.4342C112.417 12.5167 112.326 12.6721 112.268 12.8746C112.211 13.0757 112.206 13.259 112.232 13.3773L112.232 13.379L112.823 15.9546C113.068 17.0265 112.987 18.0895 112.231 18.6453C111.472 19.2028 110.436 18.9557 109.494 18.3947L107.002 16.9076C106.897 16.8451 106.718 16.7944 106.501 16.7944C106.286 16.7944 106.102 16.8444 105.991 16.9092L105.989 16.9102L103.502 18.3944C102.562 18.9573 101.526 19.2001 100.768 18.6419C100.012 18.0861 99.9268 17.0251 100.173 15.954L100.763 13.379L100.764 13.3773C100.79 13.259 100.784 13.0757 100.727 12.8746C100.67 12.6721 100.578 12.5167 100.496 12.4342L98.4299 10.3506C97.7439 9.65892 97.3627 8.80875 97.6216 7.99112C97.8813 7.17112 98.6845 6.69991 99.6453 6.53847L102.301 6.09357L102.302 6.09343C102.399 6.07654 102.552 6.01222 102.71 5.89398C102.869 5.77553 102.975 5.64621 103.019 5.55438L103.022 5.54981L104.488 2.59256L104.489 2.59139C104.932 1.70098 105.623 1.04175 106.497 1.04175Z" fill="#DDFF00"/>
<path d="M138.497 1.04175C139.371 1.04175 140.06 1.70219 140.5 2.59334L141.968 5.55438C142.012 5.64602 142.118 5.77506 142.277 5.89312C142.435 6.01104 142.59 6.07609 142.693 6.09325L145.351 6.53852C146.311 6.69986 147.115 7.17049 147.377 7.99C147.638 8.80883 147.255 9.65975 146.565 10.3514L146.564 10.3522L144.499 12.4342C144.417 12.5167 144.326 12.6721 144.268 12.8746C144.211 13.0757 144.206 13.259 144.232 13.3773L144.232 13.379L144.823 15.9546C145.068 17.0265 144.987 18.0895 144.231 18.6453C143.472 19.2028 142.436 18.9557 141.494 18.3947L139.002 16.9076C138.897 16.8451 138.718 16.7944 138.501 16.7944C138.286 16.7944 138.102 16.8444 137.991 16.9092L137.989 16.9102L135.502 18.3944C134.562 18.9573 133.526 19.2001 132.768 18.6419C132.012 18.0861 131.927 17.0251 132.173 15.954L132.763 13.379L132.764 13.3773C132.79 13.259 132.784 13.0757 132.727 12.8746C132.67 12.6721 132.578 12.5167 132.496 12.4342L130.43 10.3506C129.744 9.65892 129.363 8.80875 129.622 7.99112C129.881 7.17112 130.685 6.69991 131.645 6.53847L134.301 6.09357L134.302 6.09343C134.399 6.07654 134.552 6.01222 134.71 5.89398C134.869 5.77553 134.975 5.64621 135.019 5.55438L135.022 5.54981L136.488 2.59256L136.489 2.59139C136.932 1.70098 137.623 1.04175 138.497 1.04175Z" fill="#DDFF00"/>
</svg>
